<svg width="33" height="30" viewBox="0 0 33 30" fill="none" xmlns="http://www.w3.org/2000/svg">
<path d="M31.1762 3.88974C29.2424 1.42839 26.5246 0 23.958 0C20.5697 0 19.1365 1.64649 16.7824 1.64649C14.3551 1.64649 12.511 0.00479349 9.58079 0.00479349C6.70251 0.00479349 3.6377 1.79029 1.69444 4.8436C-1.03744 9.14316 -0.56993 17.227 3.85729 24.1125C5.44164 26.5763 7.55726 29.3468 10.3246 29.3707C12.7873 29.3947 13.4815 27.7674 16.8178 27.7506C20.1542 27.7315 20.787 29.3923 23.245 29.366C26.0146 29.3444 28.2459 26.2743 29.8303 23.8106C30.966 22.0442 31.3887 21.1551 32.2694 19.1611C25.8635 16.6854 24.8364 7.43915 31.1762 3.88974Z" fill="white"/>
</svg>
