<svg width="73" height="74" viewBox="0 0 73 74" fill="none" xmlns="http://www.w3.org/2000/svg">
<path d="M71.0359 36.8125C71.0359 56.3362 55.4488 72.125 36.268 72.125C17.0871 72.125 1.5 56.3362 1.5 36.8125C1.5 17.2888 17.0871 1.5 36.268 1.5C55.4488 1.5 71.0359 17.2888 71.0359 36.8125Z" fill="#1E1E1E" stroke="#00FFCB" stroke-width="3"/>
<path d="M55.611 33.083H54V33H36V41H47.303C45.654 45.657 41.223 49 36 49C29.373 49 24 43.627 24 37C24 30.373 29.373 25 36 25C39.059 25 41.842 26.154 43.961 28.039L49.618 22.382C46.046 19.053 41.268 17 36 17C24.955 17 16 25.955 16 37C16 48.045 24.955 57 36 57C47.045 57 56 48.045 56 37C56 35.659 55.862 34.35 55.611 33.083Z" fill="#FFC107"/>
<path d="M18.306 27.691L24.877 32.51C26.655 28.108 30.961 25 36 25C39.059 25 41.842 26.154 43.961 28.039L49.618 22.382C46.046 19.053 41.268 17 36 17C28.318 17 21.656 21.337 18.306 27.691Z" fill="#FF3D00"/>
<path d="M36 57C41.166 57 45.86 55.023 49.409 51.808L43.219 46.57C41.1436 48.1484 38.6075 49.0021 36 49C30.798 49 26.381 45.683 24.717 41.054L18.195 46.079C21.505 52.556 28.227 57 36 57Z" fill="#4CAF50"/>
<path d="M55.611 33.083H54V33H36V41H47.303C46.5142 43.2164 45.0934 45.1532 43.216 46.571L43.219 46.569L49.409 51.807C48.971 52.205 56 47 56 37C56 35.659 55.862 34.35 55.611 33.083Z" fill="#1976D2"/>
</svg>
